# Blender 4.2.1 LTS
# www.blender.org
mtllib cage_deformed_variant_1.mtl
o cage_deformed_variant_1
v 7.677430 4.169530 2.100000
v 7.671680 4.159740 2.100000
v 7.671680 4.159740 -2.100000
v 7.677430 4.169530 -2.100000
v 3.473600 4.286570 -2.100000
v 3.478450 4.261780 -2.100000
v 3.473600 4.286570 2.100000
v 3.478450 4.261780 2.100000
v -2.100000 4.183780 -2.100000
v -2.100000 4.183780 2.100000
v 2.100000 4.183780 2.100000
v 2.100000 4.183780 -2.100000
v 3.076410 -1.150210 -2.100000
v 6.867826 11.363184 1.791985
v 2.827170 3.308720 2.100000
v 2.827170 3.308720 -2.100000
v 6.867826 11.363184 -2.408015
v 3.076410 -1.150210 2.100000
v 2.808200 5.188130 2.099999
v 2.808200 5.188130 -2.100000
v 6.397740 0.771363 -2.100000
v 10.512527 9.629434 1.791986
v 3.295470 3.602600 2.100000
v 3.295470 3.602600 -2.100000
v 3.538321 9.700563 -2.408014
v -0.741921 0.735680 2.100000
v 2.238560 4.651900 2.100000
v 2.238560 4.651910 -2.100000
v -0.741921 0.735681 -2.100000
v 3.538320 9.700563 1.791986
v 2.382230 3.542750 2.100000
v 2.382230 3.542750 -2.100000
v 10.512527 9.629434 -2.408014
v 6.397740 0.771363 2.100000
v 3.352020 4.710700 2.100000
v 3.352020 4.710700 -2.100000
vn 0.8874 -0.4609 -0.0000
vn -0.0063 -0.0493 -0.9988
vn -0.9613 -0.2756 -0.0000
vn 0.0063 0.0493 0.9988
vn 0.0220 0.9998 -0.0000
vn -0.0302 -0.9995 -0.0000
vn -0.0000 -0.0000 1.0000
vn 0.9152 0.4030 -0.0000
vn -0.0000 -0.0000 -1.0000
vn -0.9304 -0.3665 -0.0000
vn 0.5008 -0.8656 -0.0000
vn -0.5315 0.8470 -0.0000
vn -0.0422 0.0748 0.9963
vn 0.6854 -0.7281 -0.0000
vn 0.0422 -0.0748 -0.9963
vn -0.4468 0.8947 -0.0000
vn -0.6994 0.7148 -0.0000
vn 0.0062 -0.0574 -0.9983
vn 0.9589 -0.2838 -0.0000
vn -0.0062 0.0574 0.9983
vn -0.9636 0.2675 -0.0000
vn 0.9358 -0.3524 -0.0000
vn -0.4428 -0.8966 -0.0000
vn 0.4655 0.8850 -0.0000
vn 0.0191 0.0362 0.9992
vn -0.6597 -0.7515 -0.0000
vn -0.0191 -0.0362 -0.9992
vn 0.4296 0.9030 -0.0000
s 0
f 22//1 2//1 3//1 33//1
f 33//2 3//2 5//2 36//2
f 36//3 5//3 7//3 35//3
f 35//4 7//4 2//4 22//4
f 4//5 6//5 8//5 1//5
f 5//6 3//6 2//6 7//6
f 31//7 11//7 10//7 26//7
f 32//8 12//8 11//8 31//8
f 29//9 9//9 12//9 32//9
f 26//10 10//10 9//10 29//10
f 34//11 18//11 13//11 21//11
f 21//9 13//9 16//9 24//9
f 24//12 16//12 15//12 23//12
f 23//7 15//7 18//7 34//7
f 27//13 19//13 14//13 30//13
f 28//14 20//14 19//14 27//14
f 25//15 17//15 20//15 28//15
f 30//16 14//16 17//16 25//16
f 10//17 30//17 25//17 9//17
f 9//18 25//18 28//18 12//18
f 12//19 28//19 27//19 11//19
f 11//20 27//20 30//20 10//20
f 8//7 23//7 34//7 1//7
f 6//21 24//21 23//21 8//21
f 4//9 21//9 24//9 6//9
f 1//22 34//22 21//22 4//22
f 18//23 26//23 29//23 13//23
f 13//9 29//9 32//9 16//9
f 16//24 32//24 31//24 15//24
f 15//7 31//7 26//7 18//7
f 19//25 35//25 22//25 14//25
f 20//26 36//26 35//26 19//26
f 17//27 33//27 36//27 20//27
f 14//28 22//28 33//28 17//28
